<svg t="1704850225399" class="icon" viewBox="0 0 1024 1024" version="1.1" xmlns="http://www.w3.org/2000/svg" p-id="1725" width="28" height="28"><path d="M921.394176 242.34496c0-49.16224-27.84256-87.672832-63.386624-87.672832L166.642688 154.672128c-35.544064 0-63.386624 38.509568-63.386624 87.672832 0 49.163264 27.84256 87.67488 63.386624 87.67488l62.806016 0-72.219648 475.06944 0 1.548288c0 35.544064 38.510592 63.3856 87.67488 63.3856 48.349184 0 86.395904-26.932224 87.641088-61.632512l27.355136-179.94752 304.848896 0 27.355136 179.94752c1.241088 34.70336 39.289856 61.632512 87.642112 61.632512 49.164288 0 87.67488-27.841536 87.67488-63.3856l0-1.548288-72.219648-475.06944 62.806016 0C893.551616 330.018816 921.394176 291.508224 921.394176 242.34496zM144.216064 242.34496c0-28.081152 13.498368-46.712832 22.426624-46.712832l691.364864 0c8.928256 0 22.426624 18.630656 22.426624 46.712832 0 28.0832-13.499392 46.71488-22.426624 46.71488L166.642688 289.05984C157.714432 289.058816 144.216064 270.42816 144.216064 242.34496zM291.616768 805.088256l0 1.548288c0 8.928256-18.630656 22.4256-46.712832 22.4256-27.02336 0-45.295616-12.498944-46.635008-21.397504l72.605696-477.60896 92.956672 0L291.616768 805.088256zM367.304704 587.482112l8.395776-61.002752 272.539648 0 9.68704 61.002752L367.304704 587.482112zM779.746304 829.062144c-28.082176 0-46.712832-13.498368-46.712832-22.4256L660.820992 330.05568l92.955648 0 72.605696 477.60896C825.042944 816.5632 806.770688 829.062144 779.746304 829.062144zM643.022848 485.51936 381.628416 485.51936l23.63904-155.49952 214.116352 0L643.022848 485.51936z" p-id="1726"></path></svg>