<?xml version="1.0" standalone="no"?><!DOCTYPE svg PUBLIC "-//W3C//DTD SVG 1.1//EN" "http://www.w3.org/Graphics/SVG/1.1/DTD/svg11.dtd"><svg t="1704814724559" class="icon" viewBox="0 0 2197 1024" version="1.1" xmlns="http://www.w3.org/2000/svg" p-id="15452" width="102.984375" height="48" xmlns:xlink="http://www.w3.org/1999/xlink"><path d="M2096.893552 1023.881206H84.056429c-36.469606 0-66.286775-29.817169-66.286775-66.286774V66.286775c0-36.469606 29.817169-66.286775 66.286775-66.286775h2012.837123c36.469606 0 66.286775 29.817169 66.286775 66.286775v891.307657c0 36.469606-29.817169 66.286775-66.286775 66.286774z" fill="#b89158" p-id="15453"></path><path d="M86.907473 150.986543s42.765661-4.157773 117.724362-5.939675c18.769374-0.356381 39.439443-0.831555 62.010209-0.831555 11.047796 0 23.283527-0.237587 35.400464 0.237587 12.235731 0.237587 24.827842 0.712761 37.895127 1.425522 52.863109 3.682599 111.071926 11.760557 175.101625 16.393504 64.029698 5.345708 132.92993 13.067285 205.750348 21.38283 72.820418 8.434339 149.20464 19.600928 228.915081 22.095592 39.795824 1.069142 80.423202 0.593968 120.931786-3.801392 40.864965-4.157773 82.323898-8.909513 123.901625-13.661253 83.393039-9.741067 167.974014-19.600928 252.673781-29.579582 169.399536-19.838515 339.274246-38.132715 499.76427-47.517402 74.364733-4.632947 146.82877-6.414849 215.729002-6.414849V90.995824c-270.136427 1.663109-539.322506 32.668213-802.56891 62.841763-63.198144 7.246404-126.396288 14.492807-189.713225 21.382831-48.230162 3.563805-96.697912 5.464501-145.878422 5.464501-84.937355 0-172.012993-5.345708-263.008817-16.27471-161.083991-20.67007-333.572158-32.54942-473.154524-32.54942H17.29448v19.125754h69.612993z" fill="#e98f36" p-id="15454"></path><path d="M86.907473 177.00232h201.711369c138.750812 0 326.919722 21.02645 475.292807 39.439443 143.264965 18.175406 263.483991 19.957309 378.238515 5.820882 107.864501-10.335035 216.32297-22.927146 321.336427-35.281671 238.656148-27.916473 469.234339-54.882599 699.456149-57.377262v-13.067285c-68.543852 0.712761-140.413921 3.445012-214.541067 7.602784C1788.62441 133.167517 1618.987287 151.58051 1449.587751 170.587471c-84.699768 9.50348-169.518329 19.125754-252.911368 28.510441-41.815313 4.514153-83.155452 9.1471-124.258005 13.186079-41.458933 4.038979-82.799072 4.276566-123.07007 2.851044-80.779582-3.088631-157.401392-15.205568-229.984222-23.639907-72.582831-8.909513-141.601856-15.443155-205.512761-20.194896-63.673318-5.464501-122.951276-3.801392-174.388864-3.088631-26.253364 0.593968-50.249652 0.237587-72.820417 0.237587s-43.359629-0.475174-62.010209-0.831555c-74.958701-1.900696-117.724362-5.939675-117.724362-5.939675h-69.375406v15.680743h69.375406zM1235.403065 13.780046c52.863109-4.75174 106.082599-9.384687 159.658468-13.780046h-747.211136c39.67703 2.613457 80.066821 5.939675 120.456612 10.335035C913.235083 28.866821 1070.398888 29.935963 1235.403065 13.780046zM86.907473 95.391183s42.765661-0.118794 117.486775-0.35638c37.30116 0 82.917865-0.475174 134.94942 0.237587 52.031555-0.118794 110.953132 2.732251 175.101624 5.345707 32.074246 2.257077 65.336427 4.632947 99.905337 7.008817 17.343852 0.950348 34.687703 2.969838 52.506728 4.870534 17.700232 1.900696 35.756845 3.801392 53.932251 5.702088 36.588399 3.801392 73.533179 8.196752 111.784686 12.710905 9.50348 1.069142 19.125754 2.37587 28.748028 3.207424a66534.459397 66534.459397 0 0 0 87.669606 4.276567c79.591647 0.237587 161.559165-3.563805 245.070998-11.879351 83.511833-7.840371 168.330394-15.799536 253.148955-23.639907 84.818561-8.077958 169.755916-15.799536 253.505337-22.689559 83.74942-6.890023 166.429698-12.354524 246.49652-16.393504 74.24594-3.445012 146.353596-5.820882 215.135034-6.177262-0.356381-2.613457-0.831555-5.226914-1.544315-7.840371-7.840371 0.118794-15.680742 0.118794-23.521114 0.237587-26.253364 0-52.506729 0.831555-78.760093 1.544316-26.253364 0.831555-52.506729 1.187935-78.760092 2.73225l-78.760093 3.920186-78.6413 5.10812c-52.506729 3.682599-104.894664 7.721578-157.282598 12.116938-104.894664 8.671926-209.670534 18.412993-314.802784 26.490951-52.506729 4.39536-105.251044 7.602784-157.876567 11.166589-52.863109 2.613457-105.726218 5.702088-158.35174 6.77123l-79.116473 2.494664-20.076102 0.712761-20.076102-0.593968c-13.304872-0.475174-26.728538-0.712761-40.033411-1.306728-26.609745-2.613457-53.813457-3.920186-79.472854-8.434339-12.948492-1.781903-26.015777-4.038979-38.726682-5.345708L717.225803 102.875174 639.178471 94.559629c-26.134571-2.138283-52.387935-3.445012-78.522506-5.345708-52.269142-4.157773-104.894664-4.989327-157.401392-7.008817-52.744316-1.069142-105.369838-1.663109-158.114153-1.781902l-158.232947-0.712761h-69.375406v15.680742h69.375406z" fill="#e98f36" p-id="15455"></path><path d="M86.907473 43.359629h201.711369c127.940603 0 303.161021 0 478.381438 22.808352 262.296056 32.668213 526.849188 4.989327 782.849188-21.739211C1699.529283 28.748028 1854.317218 12.592111 2006.610489 8.671926c39.795824-0.950348 80.185615-1.306729 121.169374-0.712761-9.265893-4.989327-19.957309-7.840371-31.123898-7.840371h-97.64826c-166.310905 5.345708-332.146636 18.175406-495.487703 30.88631-148.729466 11.641763-302.44826 23.639907-452.959629 29.698376-24.352668 1.306729-49.418097 2.01949-74.9587 2.01949-67.949884 0-139.34478-4.75174-210.145708-14.136427-174.62645-20.907657-349.2529-20.907657-476.71833-20.907657H30.242972c-3.445012 4.75174-6.296056 9.978654-8.315545 15.680743h64.980046zM86.907473 121.406961h201.711369c140.295128 0 313.496056 11.87935 475.292807 32.668213 142.552204 16.987471 275.125754 20.432483 405.204641 10.810209 63.07935-6.890023 126.277494-14.136427 189.356844-21.382831 263.840371-30.292343 533.620418-61.297448 804.469606-62.960557v-6.652436c-68.543852 0.118794-140.413921 2.494664-214.541067 5.702088-79.829234 3.920186-162.153132 9.265893-245.664966 15.91833-83.630626 6.652436-168.449188 14.25522-253.267749 22.214385-84.937355 7.840371-169.755916 15.561949-253.386543 23.283527-83.393039 8.315545-167.023666 11.998144-247.565661 11.522969-20.194896-1.069142-40.270998-2.01949-60.109513-3.088631-9.978654-0.475174-19.838515-1.069142-29.698376-1.544315-9.741067-0.831555-19.244548-2.138283-28.748028-3.207425-38.013921-4.514153-75.552668-9.028306-111.784686-12.948492-18.056613-2.01949-35.994432-4.038979-53.575871-5.939675-17.581439-2.01949-34.92529-4.157773-52.031554-5.10812-34.331323-2.494664-67.47471-4.989327-99.192575-7.365198-63.792111-2.969838-122.119722-6.058469-174.27007-6.177262-52.031555-1.069142-97.173086-0.831555-134.711833-0.950348-74.721114-0.237587-117.486775-0.356381-117.486775-0.35638h-69.375406v15.680742h69.375406zM86.907473 281.184223h201.711369c90.87703 0 200.167053 14.136427 326.682135 30.52993 49.536891 6.414849 100.855684 13.067285 154.075174 19.244548 104.41949 10.572622 212.640371 21.620418 326.088167 5.939675 132.57355-12.354524 265.978654-29.935963 394.988399-46.923434 220.480742-28.985615 445.594432-58.683991 672.490023-62.485383v-16.155916c-241.032019 2.732251-481.232483 35.162877-730.104872 68.900232-90.045476 12.235731-183.179582 24.709049-275.482135 35.638051-65.09884 7.721578-128.890951 11.52297-190.90116 11.52297-69.4942 0-136.731323-4.75174-201.236195-14.374014-42.765661-4.989327-84.580974-10.335035-125.208353-15.324362-136.850116-17.225058-254.930858-32.074246-351.391183-32.074246H17.532067v15.680742h69.375406z" fill="#e98f36" p-id="15456"></path><path d="M86.907473 203.136891h201.711369c128.17819 0 297.221346 20.551276 476.005568 42.290487 97.64826 16.868677 201.473782 19.482135 317.891416 8.077958 145.046868-10.453828 292.232019-28.15406 434.784222-45.141531 212.165197-25.42181 428.725754-51.318794 645.642692-54.645011v-13.661253c-229.509049 2.494664-459.374478 29.341995-697.555453 57.258468-105.132251 12.235731-213.709513 24.946636-321.45522 35.281671-50.368445 6.296056-102.756381 9.384687-157.876566 9.384687-70.088167 0-144.334107-4.989327-224.282135-15.205569-147.897912-18.2942-335.35406-39.32065-473.154524-39.32065H17.532067v15.680743h69.375406zM86.907473 304.705336s43.003248 0.712761 118.080743 0.593968c18.769374-0.118794 39.558237-0.237587 62.247795-0.356381 5.702088 0 11.404176-0.118794 17.343852-0.118793 6.533643-0.118794 12.116937 0.118794 18.294199 0.118793 12.235731 0.237587 24.827842 0.237587 38.013922 0.593968 53.338283 2.37587 112.259861 7.721578 176.408352 14.374014 64.029698 7.008817 133.048724 15.205568 205.750348 23.996288 36.350812 4.157773 73.533179 8.434339 112.022274 12.354524 18.888167 1.306729 37.895128 2.613457 57.258469 3.920186 19.482135 0.593968 39.201856 1.306729 59.040371 1.900696 79.472854 1.069142 161.915545-2.494664 245.308585-10.335035 83.393039-7.721578 167.85522-19.125754 252.079814-31.717866 84.224594-13.423666 168.330394-26.728538 251.24826-39.914617 42.0529-6.533643 83.155452-11.52297 124.020417-17.343851 41.221346-4.514153 82.205104-8.315545 122.357309-12.116938 40.389791-2.138283 79.948028-4.989327 118.912297-6.296055 33.262181-0.356381 65.930394-1.425522 97.767053-1.425522v-4.989328c-225.945244 3.801392-450.346172 33.380974-670.232946 62.36659-129.128538 16.987471-262.652436 34.56891-395.225986 46.923434-41.577726 5.702088-82.323898 7.959165-122.476102 7.959164-71.038515 0-139.938747-7.008817-207.413457-13.89884-53.457077-6.177262-104.77587-12.829698-154.431555-19.244547-126.039907-16.27471-234.854756-30.411137-324.543852-30.411137H17.650861v13.067285h69.256612z" fill="#e98f36" p-id="15457"></path><path d="M86.907473 336.779582h201.711369c82.680278 0 181.278886 13.542459 295.439443 29.341996C644.999352 374.555916 708.078703 383.227842 774.603065 390.593039c158.114153 20.194896 308.625522 17.937819 460.206032-6.771229 57.614849-8.434339 114.635731-17.106265 171.419026-25.778191 257.663109-39.201856 506.297912-77.096984 756.714617-80.541995v-19.957308c-31.599072 0-64.029698 1.187935-96.935499 1.544315-38.489095 1.425522-77.809745 4.39536-117.843155 6.533643-39.67703 3.801392-80.066821 7.602784-120.931787 12.235731-20.432483 2.851044-40.983759 5.702088-61.535035 8.553132l-31.005104 4.276566c-4.989327 0.712761-10.691415 1.425522-15.205569 2.257077l-15.443155 2.613457c-82.561485 14.25522-166.548492 28.748028-250.416705 43.359628-84.1058 14.374014-168.686775 27.79768-252.911369 37.182367-84.224594 9.384687-168.330394 15.324362-249.941532 14.374014-20.432483-0.475174-40.627378-1.069142-60.70348-1.544316-20.194896-1.306729-40.152204-2.494664-59.871926-3.801392-19.244548-1.900696-38.251508-3.801392-57.020881-5.702088-18.888167-2.37587-37.419954-4.632947-55.832947-6.890023-73.176798-9.1471-141.601856-20.194896-204.8-29.460789-63.07935-9.384687-121.288167-16.868677-172.369374-20.432483-12.948492-0.831555-25.659397-1.187935-37.895127-1.663109-5.939675-0.237587-12.473318-0.712761-17.700232-0.593967-5.939675 0-11.641763-0.118794-17.343852-0.118794-22.689559-0.118794-43.478422-0.237587-62.247795-0.35638-75.196288-0.118794-118.080742 0.593968-118.080743 0.593967h-69.375406v16.512297h69.375406z" fill="#e98f36" p-id="15458"></path><path d="M86.907473 255.168445h201.711369c97.410673 0 216.085383 14.849188 353.410673 32.074246 40.627378 5.108121 82.442691 10.335035 125.327146 15.443156 120.812993 18.056613 251.367053 19.006961 388.098376 2.969837 92.064965-10.929002 185.199072-23.521114 275.125754-35.638051 249.585151-33.737355 490.498376-66.286775 732.361949-69.019025v-7.246404c-68.425058 0.831555-140.176334 4.989327-214.065893 9.978654-79.591647 6.533643-161.915545 13.780046-245.189792 23.402321-83.393039 9.265893-167.85522 19.838515-252.554988 30.17355-84.580974 10.453828-169.518329 20.67007-253.148956 29.698375-20.907657 2.138283-41.69652 4.276566-62.485383 6.41485l-15.561949 1.544315c-5.583295 0.475174-10.572622 0.712761-15.918329 1.069142-10.453828 0.712761-20.907657 1.306729-31.242692 2.019489-41.458933 3.445012-82.799072 3.207425-123.307656 3.920186-20.313689 0.118794-40.627378-1.425522-60.584687-2.01949-20.076102-0.831555-39.914617-1.425522-58.921578-3.801392-19.125754-2.01949-38.132715-3.920186-56.783294-5.820881-19.244548-2.01949-37.30116-4.514153-55.59536-6.652437-72.701624-8.909513-141.364269-17.343852-204.8-25.065429-31.717865-3.445012-61.891415-6.058469-90.758237-8.909513-28.629234-3.326218-56.545708-4.157773-82.561485-5.345707-13.067285-0.593968-25.659397-1.187935-37.776334-1.781903-3.088631-0.118794-6.058469-0.237587-9.028306-0.475174l-4.038979-0.237587h-4.39536c-5.820882 0-11.641763-0.118794-17.225058-0.118793-22.570766-0.237587-43.359629-0.475174-62.129002-0.593968-74.958701-0.712761-117.843155-1.187935-117.843155-1.187935h-69.375406v15.680742h69.256612z" fill="#e98f36" p-id="15459"></path><path d="M86.907473 229.152668s42.884455-0.475174 117.843156-1.187935c18.769374-0.237587 39.439443-0.356381 62.129002-0.593967 5.702088 0 11.404176-0.118794 17.225058-0.118794h4.395359l4.870534 0.118794c2.969838 0.118794 6.058469 0.118794 9.028306 0.237587 12.235731 0.356381 24.827842 0.712761 37.895128 1.069141 26.134571 0.712761 53.813457 1.306729 83.155452 4.39536 29.341995 2.613457 60.3471 4.870534 92.302553 7.959165 63.792111 7.008817 132.92993 14.25522 205.512761 23.283526 18.056613 2.01949 36.825986 4.632947 55.001392 6.414849 18.769374 1.900696 37.657541 3.801392 56.902088 5.702089 19.244548 2.37587 38.370302 2.851044 57.733643 3.563805 19.363341 0.475174 38.845476 2.01949 58.68399 1.781902 39.795824-0.831555 80.185615-0.712761 120.931787-4.276566 10.216241-0.712761 20.432483-1.425522 30.767517-2.019489l15.205569-1.069142L1132.17151 272.749884c20.67007-2.01949 41.577726-4.157773 62.485383-6.177262 83.393039-8.790719 167.974014-18.65058 252.673782-28.985615 84.699768-10.216241 169.399536-20.67007 253.030162-29.698376 83.630626-9.50348 166.310905-16.63109 246.49652-22.570766 74.60232-4.514153 146.947564-8.196752 216.204176-8.553132v-12.473318c-216.204176 3.326218-432.051972 29.104408-643.623201 54.407425-142.670998 17.106265-290.093735 34.687703-435.259397 45.260325-47.636195 4.632947-93.371694 7.008817-137.32529 7.008816-64.623666 0-125.683527-5.108121-184.486311-15.205568-177.952668-21.620418-346.401856-42.171694-473.629699-42.171694H17.650861v15.680743h69.256612zM2057.572902 967.810673l39.67703-1.187935c13.186079-0.356381 26.490951 0 39.677031-0.118794 8.434339 0.118794 16.868677 0.118794 25.303016 0.118794 0.356381-2.969838 0.593968-5.939675 0.593967-9.028306v-3.326219c-53.21949-1.187935-104.894664-1.187935-155.97587 0.118794-151.58051 3.801392-306.130858 19.957309-455.454292 35.638051-132.692343 13.89884-267.641763 28.035267-403.541531 33.856148h150.986543c16.27471-1.187935 32.668213-2.494664 48.942923-3.920185 209.670534-16.868677 418.984687-39.558237 630.437123-49.299304 26.490951-1.544316 52.981903-2.01949 79.35406-2.851044zM86.907473 69.375406l158.232947-0.712761c52.744316-0.356381 105.607425-0.237587 158.35174 0.356381 52.863109 1.425522 105.845012 1.781903 158.589327 5.583294 26.372158 1.544316 52.863109 2.732251 79.235267 4.870534l78.760093 8.196752 39.439443 4.157772c13.423666 1.425522 26.015777 3.563805 39.201856 5.345708 26.015777 4.39536 51.675174 5.464501 77.334571 7.959165 12.948492 0.593968 26.015777 0.712761 38.964269 1.187935l19.482134 0.475174 19.482135-0.712761 78.99768-2.732251c52.863109-1.306729 105.132251-4.39536 157.638979-7.246404 52.506729-3.682599 104.894664-7.008817 157.282599-11.52297 209.670534-16.868677 418.984687-39.558237 630.437122-49.299303 26.372158-1.663109 52.863109-2.01949 79.354061-2.851045l39.67703-1.187935c13.186079-0.356381 26.490951 0 39.67703-0.118793h15.799536c-2.969838-4.632947-6.414849-8.909513-10.453828-12.710905-45.973086-0.712761-90.995824-0.593968-135.424594 0.593968-151.58051 3.801392-306.012065 19.957309-455.454293 35.638051-173.438515 18.175406-350.916009 36.707193-529.343851 36.707192-85.76891 0-171.537819-4.276566-257.306729-14.967981-174.151276-22.689559-348.777726-22.689559-476.243155-22.689559H18.838796c-0.831555 4.038979-1.187935 8.196752-1.187935 12.592111v3.088631h69.256612zM86.907473 469.709513s170.23109 0.712761 425.637123 1.663109c63.792111 0.237587 133.048724 0.593968 206.106729 0.831554 73.176798-0.118794 150.273782 1.069142 230.103016 1.900696 79.829234 0.950348 162.271926 2.01949 246.021346 1.663109 83.74942-0.237587 168.805568 0.475174 253.98051-0.593967 85.056148-1.425522 170.23109-2.732251 253.98051-4.157773 41.934107-0.950348 83.511833-0.831555 124.495592-0.712761 41.102552 0.118794 81.611137 0.118794 121.525754 0.237587 74.008353 0.118794 145.759629 0.118794 214.184687 0.831555v-17.819026c-63.792111-0.475174-130.19768-1.663109-197.909977-4.632946-102.756381-4.39536-207.413457-0.118794-314.565197 4.989327-21.264037 1.069142-43.003248 2.613457-65.930395 4.276566-40.627378 2.969838-82.086311 6.058469-122.238515 6.058469-28.866821 0-57.139675-1.544316-83.987007-5.820882-1.069142-0.118794-1.900696-0.831555-2.019489-1.781903-0.118794-0.831555 0.475174-1.663109 1.544315-2.019489 24.827842-8.790719 80.898376-12.473318 126.039908-15.443156 13.067285-0.831555 25.42181-1.663109 35.28167-2.494663 28.866821-2.494664 58.802784-3.801392 87.669606-5.108121 17.819026-0.831555 36.350812-1.663109 54.288631-2.73225 104.181903-6.296056 204.087239-7.602784 321.930394-7.602785h31.242692c43.834803 0 86.600464-0.118794 128.890951 0.475174V404.610673h-1.900696c-20.076102-0.356381-41.221346-0.593968-63.198144-0.475174-10.929002 0-22.095592 0-33.380974-0.118794-11.285383 0.118794-22.689559 0.237587-34.212529 0.356381-11.52297 0.118794-23.04594 0.118794-34.687704 0.237587-11.641763 0.356381-23.283527 0.593968-34.92529 0.950348-23.40232 0.118794-46.685847 1.069142-69.612993 1.781902-22.927146 0.831555-45.616705 1.663109-67.47471 2.494664-21.858005 1.069142-43.122042 2.01949-63.198143 2.969838-20.076102 1.069142-39.083063 2.01949-56.664502 2.969837-70.444548 4.038979-117.486775 6.77123-117.486774 6.77123s11.166589-3.088631 31.242691-7.365197c9.978654-2.138283 22.095592-4.75174 36.232018-7.246404 14.017633-2.494664 29.935963-5.464501 47.398608-7.959165 17.343852-2.732251 36.350812-5.464501 56.426915-7.840371 20.076102-2.494664 41.340139-4.75174 63.43573-6.77123 22.095592-1.544316 44.903944-4.038979 68.187471-4.870533 23.283527-1.069142 46.923434-2.37587 70.563341-2.851044 11.87935-0.118794 23.639907-0.356381 35.519258-0.475174 11.760557 0.118794 23.521114 0.118794 35.281671 0.237587 23.283527-0.237587 46.329466 1.187935 68.425058 2.138283 11.047796 0.593968 21.976798 0.831555 32.668213 1.663109 10.691415 0.950348 21.02645 1.781903 31.123898 2.613457h0.118793v-49.418098c-68.187471 1.425522-139.582367 5.702088-215.135034 12.829699-144.215313 9.622274-288.9058 34.450116-428.844548 58.446403-179.496984 30.767517-363.508121 62.366589-550.013921 62.36659-63.198144 0-126.633875-3.563805-190.307193-12.116938-74.483527-8.077958-144.215313-18.056613-211.571229-27.678886-107.983295-15.443155-201.117401-28.866821-278.451973-28.866821H17.650861v46.44826c39.439443-0.237587 78.878886-0.237587 118.318329-0.475174l164.172622 0.712761c46.80464 0.237587 93.728074 0.831555 140.532714 1.425522l-111.428306-10.572622-74.483527-6.414849c-24.827842-2.138283-49.774478-3.801392-74.60232-5.583295-12.473318-1.069142-24.827842-1.663109-37.30116-2.494664-12.473318-0.831555-24.946636-1.425522-37.419953-1.900696-12.473318-0.712761-24.946636-0.950348-37.419954-0.950348-12.473318-0.593968-24.946636 0.356381-37.419954 0.712761 12.354524-1.187935 24.827842-2.732251 37.419954-2.969837 12.473318-0.593968 25.065429-0.831555 37.657541-0.712761 12.592111-0.118794 25.065429-0.118794 37.65754 0.237587 12.473318 0.237587 25.065429 0.356381 37.538747 0.831554 50.130858 1.544316 100.02413 4.75174 149.917402 7.721578s99.786543 7.12761 149.561021 11.285383c49.774478 4.157773 99.430162 9.028306 149.20464 13.89884 5.464501 0.593968 9.265893 4.39536 8.553132 8.671925-0.593968 3.920186-5.108121 6.890023-10.097448 6.77123l-164.053828-3.207424c-54.645012-1.425522-109.408817-2.494664-164.053828-4.276567l-164.053828-5.226914c-39.32065-1.663109-78.760093-3.088631-118.080743-4.75174v21.264037l69.137819-0.118793zM2137.283343 985.154524c-26.253364 0-52.506729 0.831555-78.760093 1.544316-26.253364 0.831555-52.506729 1.187935-78.760092 2.73225l-78.760093 3.920186-78.6413 5.108121c-52.506729 3.682599-104.894664 7.721578-157.282598 12.116937-52.150348 4.276566-104.300696 8.909513-156.451044 13.423666h92.658932c33.262181-2.969838 66.524362-5.820882 99.548956-8.553132 83.74942-6.890023 166.429698-12.354524 246.49652-16.393504 70.800928-3.207425 139.70116-5.702088 205.512761-6.058468 1.544316-2.494664 2.969838-5.108121 4.276566-7.840372-6.77123-0.118794-13.304872-0.118794-19.838515 0zM245.14042 1003.923898c52.744316-0.356381 105.607425-0.237587 158.35174 0.35638 52.863109 1.425522 105.845012 1.781903 158.589327 5.583295 26.372158 1.544316 52.863109 2.732251 79.235267 4.870534l78.760093 8.196751 8.434338 0.831555h177.002321c-46.923434-2.37587-93.846868-6.296056-140.770302-12.116937-174.032483-22.570766-348.658933-22.570766-476.124362-22.570766h-263.008817c3.207425 5.820882 7.12761 11.047796 11.760557 15.680742h49.536891l158.232947-0.831554z" fill="#e98f36" p-id="15460"></path><path d="M2034.170582 425.161949H2002.927891c-117.724362 0-217.510905 1.306729-321.574014 7.602784-17.937819 1.069142-36.469606 1.900696-54.407425 2.732251-28.866821 1.306729-58.683991 2.613457-87.432018 5.10812-9.859861 0.831555-22.333179 1.663109-35.400464 2.494664-40.033411 2.613457-88.976334 5.820882-115.94246 12.592111 61.178654 8.315545 129.603712 3.326218 195.890487-1.544315 23.04594-1.663109 44.785151-3.326218 66.167982-4.276566 107.270534-5.226914 212.046404-9.50348 315.159165-4.989327 67.593503 2.969838 133.880278 4.157773 197.672389 4.632946v-23.877494c-42.409281-0.475174-85.056148-0.475174-128.890951-0.475174zM2056.978935 701.950812c-26.134571 0.118794-52.269142 1.187935-78.403713 1.425522-52.150348 1.069142-105.251044 4.157773-157.520185 5.583295l-157.757773 4.870533h-0.712761c137.919258-3.563805 278.570766-6.414849 418.390719-4.75174 28.035267 0.712761 55.357773 1.306729 81.848724 1.900696v-8.315545l-27.322505-0.475174-78.522506-0.237587zM1548.89912 736.876102L1675.057821 732.480742c42.0529-1.425522 84.1058-2.969838 126.277494-3.088631 42.171694-0.356381 84.224594-1.425522 126.396288-1.306728l126.515081 1.900696c36.113225 0.475174 72.464037 1.425522 108.696056 2.257076v-10.810208c-26.609745-0.593968-54.051044-1.187935-82.205105-1.900696-172.131787-1.900696-345.926682 2.851044-514.019489 7.365197-55.357773 1.544316-111.309513 2.969838-167.380046 4.276566l-50.724826 4.157773c-52.387935 4.276566-104.77587 8.434339-157.401393 11.87935-5.464501 0.356381-11.047796 0.593968-16.512297 0.950348 40.746172-0.831555 81.492343-1.069142 122.238516-2.37587 83.987007-2.732251 167.974014-5.583295 251.96102-8.909513zM86.907473 17.225058h201.711369C416.559445 17.225058 591.779863 17.225058 767.475455 38.251508c96.579118 12.829698 194.108585 16.987471 282.253364 11.998144 150.392575-6.058469 303.992575-18.056613 452.484455-29.579582 94.084455-7.365197 188.881671-14.730394 284.272853-20.67007H1527.991464C1429.86803 7.246404 1332.694944 15.561949 1236.94738 24.233875c-77.453364 7.602784-153.243619 11.404176-226.895591 11.404176-84.343387 0-165.716937-4.989327-243.645476-14.967981-175.458005-19.006961-350.203248-19.006961-477.668678-19.006961H69.444828c-11.404176 2.613457-21.620418 8.077958-29.935963 15.680743h47.398608zM1387.339956 731.292807c-82.561485 1.781903-165.716937 3.207425-249.228771 3.207425-115.110905 0-230.696984-2.494664-345.570301-9.50348h-5.464501c3.801392 0.356381 7.602784 0.712761 11.285382 1.069141l39.083063 4.157773 38.845476 2.969837c25.896984 2.37587 52.031555 3.563805 78.166125 4.989328 26.134571 1.781903 52.387935 1.900696 78.641299 2.969837 26.253364 0.593968 52.506729 0.593968 78.760093 0.831555 26.253364-0.356381 52.625522-0.593968 78.878886-1.306729 52.625522-1.425522 105.251044-3.445012 157.63898-7.008817 13.067285-0.593968 26.015777-1.425522 38.964269-2.37587zM86.907473 952.605104h201.711369c127.940603 0 303.161021 0 478.856613 21.026451 96.579118 12.829698 194.108585 16.987471 282.253364 11.998143 150.392575-6.058469 303.992575-18.056613 452.484455-29.579582 217.392111-16.987471 439.298376-34.212529 660.729466-33.856148v-10.691416c-314.802784-3.207425-626.873318 21.264037-925.99536 47.992576-77.453364 7.602784-153.243619 11.404176-226.895591 11.404176-84.343387 0-165.716937-4.989327-243.76427-14.967981-175.458005-19.006961-350.203248-19.006961-477.668677-19.006961H17.532067v15.680742h69.375406zM86.907473 844.97819s42.646868-0.831555 117.130395-2.138283c37.30116-0.593968 82.561485-1.425522 134.474245-2.37587 51.912761-1.069142 110.715545-1.187935 174.745244-1.544315 32.074246 0.356381 65.45522 0.831555 100.142923 1.187935l26.134571 0.35638c8.790719 0.356381 17.700232 0.712761 26.609745 1.069142 17.819026 0.712761 35.994432 1.425522 54.407425 2.138283 72.701624 2.138283 150.036195 9.265893 229.390255 12.235731 39.558237 0.593968 79.710441 1.069142 120.337819 1.663109 20.313689 0.593968 40.983759-0.118794 61.653828-0.475174 20.67007-0.475174 41.458933-0.831555 62.36659-1.306729 20.907657-0.475174 41.815313-0.950348 62.841763-1.306728 21.02645-0.831555 42.171694-1.781903 63.316937-2.613458 42.290487-1.900696 84.818561-3.326218 127.227842-5.583294 85.056148-4.276566 170.112297-8.434339 253.861717-12.592112 41.815313-2.37587 83.630626-3.088631 124.733179-4.75174 20.551276-0.712761 40.983759-1.425522 61.297448-2.138283 20.313689-0.118794 40.508585-0.356381 60.584687-0.475174 40.152204 0 79.235267-0.831555 118.080742-0.237587 32.9058 0.831555 65.09884 1.663109 96.579118 2.494664v-12.829699c-33.737355-0.831555-68.425058-1.544316-104.063109-2.019489-235.32993-3.088631-484.083527 13.423666-684.012993 26.728538-97.885847 6.533643-196.365661 9.741067-296.864965 9.741067-98.954988 0-199.929466-3.207425-304.111369-9.50348-182.941995-11.047796-357.806032-11.047796-485.390255-11.047796H17.29448V845.334571h69.612993z" fill="#e98f36" p-id="15461"></path><path d="M86.907473 870.993968h201.711369c127.82181 0 303.042227 0 482.420418 15.086774 250.060325 24.827842 504.516009 5.939675 750.656148-12.473317 172.844548-12.829698 351.747564-26.253364 528.27471-24.352669 38.489095 0.118794 76.146636 0.831555 112.972622 2.01949v-11.998144c-31.717865-0.593968-64.029698-1.187935-97.054292-1.900696-38.132715-0.118794-77.453364 1.425522-117.249188 2.01949-19.957309 0.475174-40.033411 0.950348-60.228307 1.425522-20.194896 0.950348-40.627378 2.01949-61.05986 3.088631-40.983759 2.257077-82.442691 3.682599-124.139212 6.652436-83.511833 5.345708-168.330394 11.404176-253.267749 17.462645-42.409281 3.207425-85.056148 5.464501-127.465429 8.196752-21.145244 1.306729-42.409281 2.613457-63.435731 3.920185-21.145244 0.831555-42.290487 1.781903-63.316937 2.613457-21.02645 0.831555-41.934107 1.663109-62.841764 2.494664-20.788863 0.831555-41.577726 1.781903-62.366589 1.663109-41.577726 0.118794-82.561485 0.356381-122.951276 0.475174-20.313689 0.475174-39.795824-1.187935-59.515545-1.781903-19.600928-0.831555-38.964269-1.663109-58.208817-2.494663-19.244548-0.831555-38.132715-1.663109-56.902088-2.37587-19.838515-0.831555-37.30116-2.613457-55.714153-3.801392-18.175406-1.306729-35.994432-2.732251-53.575871-4.038979-8.790719-0.712761-17.581439-1.306729-26.253364-2.01949-8.671926-0.475174-17.343852-0.831555-25.896984-1.306729-34.212529-1.663109-67.355916-3.326218-99.192575-4.870533-63.673318-2.01949-122.000928-4.038979-174.032483-4.75174-51.912761-0.950348-97.173086-1.781903-134.474246-2.494664-74.60232-1.306729-117.130394-2.138283-117.130394-2.138283h-69.375406v15.680743h69.612993zM86.907473 818.843619h201.711369c127.82181 0 302.923434 0 486.340603 11.16659 209.314153 12.710905 405.20464 12.592111 598.838051-0.237587 200.167053-13.304872 449.27703-29.817169 685.319722-26.728538 35.519258 0.475174 70.088167 1.187935 103.825522 2.019489v-9.50348l-110.002784-2.851044-62.841764-1.900696-62.841763-0.475174c-20.907657-0.475174-41.934107 0-62.960557 0.118793-21.02645 0.118794-41.934107 0.356381-62.960557 0.950348-41.934107 0.950348-83.987007 2.01949-125.921113 3.445012l-126.039908 5.10812c-42.0529 1.663109-83.987007 3.920186-126.039907 6.177263L1297.29448 812.42877c-42.0529 2.01949-84.1058 3.920186-126.277494 5.464501l-63.198144 2.138284-63.316937 0.950348c-21.145244 0.475174-42.290487-0.237587-63.435731-0.237587l-31.717866-0.356381-31.717865-1.425522c-41.815313-1.425522-83.511833-5.108121-125.208353-8.434339l-87.550812 0.356381-88.263573-0.475174-176.527146-2.01949c-117.724362-1.781903-235.448724-2.613457-353.054292-5.10812h-69.375406v15.680742h69.256612zM86.907473 766.812065H793.016058c248.516009 24.471462 503.328074 12.829698 749.7058 1.663109 173.557309-7.840371 353.173086-16.037123 528.155917-11.404176l18.888167 0.475174c25.065429 0.593968 49.418097 1.187935 73.176798 1.663109v-9.503481l-109.52761-1.663109-125.802321-2.019489c-41.934107-0.118794-83.868213 0.831555-125.921113 1.069141-41.934107 0.237587-83.987007 1.663109-125.921114 2.613457l-126.039907 3.563806c-83.987007 2.732251-168.092807 5.226914-252.198608 7.365197-42.0529 1.187935-84.224594 1.187935-126.277494 1.781902-21.02645 0.118794-42.0529 0.712761-63.198144 0.712761l-63.198144-0.712761-63.198144-0.712761c-10.572622-0.237587-21.02645-0.118794-31.599072-0.475174l-31.599072-1.544315-125.683526-6.177262c-29.341995 0.237587-58.683991 0.475174-88.025986 1.187935-29.460789 0.475174-58.802784 1.663109-88.263573 2.37587-58.802784 1.663109-117.724362 3.682599-176.527147 4.157772l-44.191183 0.237587c-14.730394 0-29.460789-0.950348-44.191183-2.138283-14.730394-1.187935-29.460789-2.851044-44.191183-3.801392-14.730394-0.950348-29.460789-1.306729-44.191184-1.663109-29.460789-0.712761-58.802784-1.781903-88.263573-2.138283-29.460789-0.475174-58.802784-0.831555-88.263573-0.712761h-69.375406v15.680742h69.612993z" fill="#e98f36" p-id="15462"></path><path d="M86.907473 792.827842c117.724362-2.494664 235.448724-3.326218 353.054292-5.10812l176.527147-2.01949 88.263573-0.475174 88.263573 0.356381h1.069141l1.187935 0.118793c41.340139 4.39536 82.680278 9.265893 124.376798 11.760557l31.242692 2.37587 31.361485 1.781902c20.907657 0.950348 41.815313 2.613457 62.72297 3.088632l62.841763 1.781902 62.960557 0.475174c21.02645 0.356381 42.0529-0.356381 63.07935-0.593967 21.02645-0.237587 42.0529-0.712761 63.079351-1.544316 42.0529-1.187935 83.987007-3.682599 125.921113-5.820882 41.934107-2.257077 83.987007-4.632947 125.921114-7.602784l125.921114-7.959165c42.0529-2.37587 84.1058-4.989327 126.1587-6.177262 21.02645-0.950348 42.171694-1.306729 63.198144-1.663109 21.145244-0.356381 42.171694-1.069142 63.316937-0.831554l63.316938 0.475174 63.316937 1.900696 108.933643 2.851044v-10.335035c-23.996288-0.593968-48.467749-1.187935-73.651972-1.781903l-18.888167-0.475174c-174.388863-4.514153-353.64826 3.563805-526.967982 11.404177-139.582367 6.296056-281.77819 12.829698-423.974014 12.829698-109.52761 0-219.05522-3.801392-327.276102-14.492807H17.413274v15.680742h69.494199zM86.907473 895.346636l157.99536-1.187935c52.625522-0.237587 105.369838-0.118794 158.114153 0.237587 52.863109 0.831555 105.726218 1.069142 158.470533 4.157772l79.235267 3.682599 78.99768 6.296056c26.372158 2.138283 52.744316 4.038979 78.760093 7.12761l39.083063 4.157772 38.845475 2.969838c25.896984 2.37587 52.031555 3.563805 78.166125 4.989327 26.134571 1.781903 52.387935 1.900696 78.6413 2.969838 26.253364 0.593968 52.506729 0.593968 78.760093 0.831554 26.253364-0.356381 52.625522-0.593968 78.878886-1.306728 52.625522-1.425522 105.251044-3.445012 157.638979-7.008817 26.253364-1.425522 52.506729-3.445012 78.641299-5.464501 26.253364-2.01949 52.387935-3.920186 78.522506-6.414849 52.387935-4.39536 104.41949-10.929002 156.688631-16.868678 52.269142-5.820882 104.538283-12.116937 157.163805-15.561949 26.372158-1.900696 52.625522-3.445012 78.878887-4.632946 26.372158-1.187935 52.387935-2.969838 79.116473-2.969838 26.490951-0.237587 53.100696-0.593968 79.591647-0.35638l79.235267 1.663109c8.909513 0.356381 17.819026 0.712761 26.609745 1.069141v-11.998144c-36.825986-1.069142-74.60232-1.781903-113.091415-2.019489-176.051972-1.900696-354.361021 11.52297-526.849188 24.352668-161.915545 11.998144-327.513689 24.352668-493.230627 24.352668-86.838051 0-173.794896-3.445012-260.276566-11.998144-178.665429-14.967981-353.291879-14.967981-480.876102-14.967981H17.532067v13.89884h69.375406zM550.439724 1023.881206c-48.942923-3.563805-98.00464-4.39536-147.185151-6.177262-52.744316-1.069142-105.369838-1.663109-158.114153-1.781902l-158.232947-0.712761H51.150629c9.622274 5.583295 20.788863 8.671926 32.668213 8.671925h466.620882zM1948.401673 1014.8529c-49.536891 2.494664-100.02413 5.464501-151.105337 8.909513h299.359629c15.561949 0 29.935963-5.464501 41.221346-14.492807-60.941067 0.593968-124.258005 2.732251-189.475638 5.583294zM86.907473 740.677494c29.460789 0.118794 58.802784-0.118794 88.263573-0.712761 29.460789-0.356381 58.802784-1.425522 88.263573-2.138283 14.730394-0.356381 29.460789-0.712761 44.191184-1.663109 14.730394-0.831555 29.460789-2.613457 44.191183-3.801392 14.730394-1.306729 29.460789-2.138283 44.191183-2.138283l44.191183 0.237587c58.802784 0.475174 117.724362 2.613457 176.527147 4.157773l37.419953 1.069141-15.324362-1.069141-78.522506-2.851045c-52.387935-2.37587-104.894664-2.257077-157.282598-3.445011l-157.876566-0.593968-157.99536-1.187935h-69.375406v14.017634h69.137819zM86.907473 978.620882h201.711369c127.940603 0 303.161021 0 478.381438 22.808352 262.296056 32.668213 526.849188 4.989327 782.849188-21.739211 149.679814-15.680742 304.467749-31.836659 456.761021-35.756844 51.2-1.306729 103.112761-1.306729 156.332251-0.118794v-11.166589c-221.07471-0.356381-442.5058 16.868677-659.422738 33.737355-148.610673 11.52297-302.329466 23.521114-452.959629 29.579582-24.352668 1.306729-49.418097 2.01949-74.9587 2.01949-67.949884 0-139.34478-4.75174-210.145708-14.136427-174.62645-20.907657-349.2529-20.907657-476.71833-20.907657h-270.849187c0.475174 5.464501 1.544316 10.691415 3.207424 15.680743h65.811601z" fill="#e98f36" p-id="15463"></path><path d="M86.907473 926.589327h201.711369c127.940603 0 303.042227 0 479.688167 19.125754 144.928074 18.531787 302.091879 19.600928 467.096056 3.445012 299.597216-26.847332 612.38051-51.318794 927.539675-48.111369v-9.028306l-27.322506-0.475174-78.641299-0.118794c-26.134571 0.118794-52.269142 1.187935-78.403713 1.425522-52.150348 1.069142-105.251044 4.157773-157.520185 5.583295l-157.757773 4.870533-78.878886 3.326219c-26.253364 1.544316-52.506729 3.088631-78.760093 5.226914l-157.163805 12.948492c-52.387935 4.276566-104.77587 8.434339-157.401392 11.87935-26.253364 1.781903-52.625522 2.851044-78.99768 4.276566-26.372158 0.831555-52.744316 2.01949-79.116473 2.494664-52.863109 0.831555-105.726218 0.831555-158.826914-2.138283L834.356197 939.181439l-39.32065-3.326219c-26.253364-2.37587-52.269142-4.157773-78.403712-5.939675l-78.284919-5.464501-78.522506-2.851044c-52.387935-2.37587-104.894664-2.257077-157.282598-3.445012l-157.876566-0.593967-157.99536-1.187935h-69.375406v10.453828h69.612993zM86.907473 362.914153h201.711369c80.423202 0 176.170766 13.542459 287.123898 29.104408 64.386079 9.028306 131.029234 18.412993 201.830162 26.253365 171.062645 18.769374 320.623666 16.155916 470.541068-8.315545 62.485383-9.265893 125.327146-19.125754 186.14942-28.629235 248.278422-38.845476 488.003712-76.265429 728.67935-80.304408v-12.948492c-249.347564 3.563805-497.269606 41.221346-754.219954 80.304408-56.783295 8.553132-113.804176 17.225058-171.300232 25.659397-84.224594 13.780046-168.211601 20.67007-253.267749 20.67007-69.4942 0-139.70116-4.632947-211.452436-13.780047-66.643155-7.483991-129.841299-16.155916-190.90116-24.590255-113.566589-15.680742-211.57123-29.104408-293.182367-29.104408H17.532067v15.680742h69.375406zM86.907473 577.336427H793.016058c248.516009 24.471462 503.209281 12.829698 749.7058 1.663109 173.676102-7.840371 353.173086-16.037123 528.155917-11.404176l20.551276 0.475174c24.352668 0.593968 48.230162 1.187935 71.513689 1.663109v-9.503481l-109.52761-1.663109-125.802321-2.019489c-41.934107-0.118794-83.868213 0.831555-125.921113 1.187935-41.934107 0.237587-83.987007 1.663109-125.921114 2.613457l-126.039907 3.563805c-83.987007 2.732251-168.092807 5.226914-252.198608 7.365197-42.0529 1.187935-84.224594 1.187935-126.277494 1.781903-21.02645 0.118794-42.0529 0.712761-63.198144 0.712761l-63.198144-0.712761-63.198144-0.712761c-10.572622-0.237587-21.02645-0.118794-31.599072-0.475174l-31.599072-1.544316-125.683526-6.177262c-29.341995 0.237587-58.683991 0.475174-88.025986 1.069142-29.460789 0.475174-58.802784 1.663109-88.263573 2.37587-58.802784 1.663109-117.724362 3.682599-176.527147 4.157772l-44.191183 0.237587c-14.730394 0-29.460789-0.950348-44.191183-2.138283-14.730394-1.187935-29.460789-2.851044-44.191183-3.801392-14.730394-0.950348-29.460789-1.306729-44.191184-1.663109-29.460789-0.712761-58.802784-1.781903-88.263573-2.138283-29.460789-0.475174-58.802784-0.831555-88.263573-0.712761h-69.375406v15.680742h69.612993zM86.907473 525.304872H793.016058c258.732251 15.680742 520.315545 8.553132 773.226914 1.781903 168.211601-4.514153 342.244084-9.265893 514.73225-7.365197 28.035267 0.712761 55.357773 1.306729 81.848724 1.900696v-12.592112c-68.425058-2.01949-140.295128-3.326218-214.184686-4.276566-39.795824-0.712761-80.423202-0.237587-121.406961-0.237587-40.983759 0.118794-82.561485 0.475174-124.376798 1.187935-83.74942 1.069142-168.805568 2.851044-253.980511 4.75174-85.174942 1.544316-170.23109 3.563805-254.218097 3.920186-83.868213 1.306729-166.548492-0.118794-246.49652-0.831554-39.914617-1.187935-79.116473-2.494664-117.486775-3.563806-9.622274-0.237587-19.125754-0.593968-28.629234-0.831554l-7.12761-0.237587-3.207425-0.118794h-774.533642v16.512297h69.731786z" fill="#e98f36" p-id="15464"></path><path d="M86.907473 551.32065c29.460789 0.118794 58.802784-0.118794 88.263573-0.712761 29.460789-0.356381 58.802784-1.425522 88.263573-2.138283 14.730394-0.356381 29.460789-0.712761 44.191184-1.663109 14.730394-0.831555 29.460789-2.613457 44.191183-3.801393 14.730394-1.306729 29.460789-2.138283 44.191183-2.138283l44.191183 0.237587c58.802784 0.475174 117.724362 2.613457 176.527147 4.157773 29.460789 0.831555 58.802784 1.900696 88.263573 2.37587 29.460789 0.712761 58.802784 0.831555 88.263573 1.187935h0.950348l125.445939 6.533643 31.361485 1.663109c10.453828 0.475174 20.907657 0.356381 31.480279 0.593967l62.960557 0.950348 62.960556 0.950348c21.02645 0.118794 41.934107-0.475174 62.960557-0.712761 41.934107-0.831555 83.987007-1.069142 125.921114-2.494663 83.987007-2.613457 167.974014-5.464501 251.961021-8.909513l126.158701-4.39536c42.0529-1.425522 84.1058-2.969838 126.277494-3.088631 42.171694-0.356381 84.224594-1.425522 126.396288-1.306728l126.515081 1.900696c36.113225 0.475174 72.464037 1.425522 108.696055 2.257076v-10.810208c-26.609745-0.593968-54.051044-1.187935-82.205104-1.900696-172.131787-1.900696-345.926682 2.851044-514.01949 7.365197-140.889095 3.801392-284.391647 7.721578-428.60696 7.721577-115.110905 0-230.696984-2.494664-345.570302-9.50348H17.888448v15.680743h69.019025zM86.907473 388.92993h201.711369c78.522506 0 172.25058 13.423666 280.827842 28.985615 67.237123 9.622274 136.850116 19.600928 211.214849 27.678887 249.347564 33.262181 496.438051-9.1471 735.45058-50.130859 140.295128-24.115081 285.460789-48.942923 430.388864-58.565197 75.909049-7.246404 147.779118-11.52297 216.441763-12.948492v-12.473318C1923.336243 315.396752 1684.323714 352.816705 1436.876847 391.543387c-60.822274 9.50348-123.782831 19.363341-186.14942 28.629235-85.293735 13.89884-170.468677 20.907657-259.563805 20.907656-68.900232 0-140.176334-4.157773-215.491416-12.473317-71.157309-7.840371-137.800464-17.225058-202.305336-26.253365-110.240371-15.561949-205.512761-28.985615-284.748028-28.985615H17.532067v15.680743h69.375406zM86.907473 493.111833H792.06571l3.920185 0.118793 7.127611 0.237587c9.50348 0.237587 19.006961 0.593968 28.629234 0.831555 38.370302 1.187935 77.572158 2.37587 117.486775 3.682599 79.591647 0.712761 161.796752 2.01949 245.546172 0.831554 83.74942-0.356381 168.805568-2.257077 253.861716-3.682598 85.174942-1.781903 170.23109-3.563805 253.980511-5.345708 41.934107-1.069142 83.511833-1.663109 124.614385-2.01949 41.102552-0.237587 81.72993-1.663109 121.644548-1.425522 74.24594 0.118794 145.878422 0 214.184686-0.831554v-12.829699c-68.425058-0.475174-140.176334-0.356381-214.184686-0.237587-39.914617 0-80.423202 0.118794-121.525754 0.118794-41.102552 0-82.561485 0-124.495592 1.069141-83.74942 1.544316-168.924362 3.207425-253.980511 4.870534-85.056148 1.306729-170.23109 0.831555-254.099303 1.306729-83.868213 0.593968-166.310905-0.237587-246.021346-0.950348-79.829234-0.593968-156.926218-1.663109-230.103016-1.187936-73.176798 0.237587-142.314617 0.593968-206.106729 0.831555-255.406032 1.069142-425.637123 1.663109-425.637123 1.663109h-69.375406v13.067285h69.375406zM86.907473 705.870998l157.99536-1.187935c52.625522-0.237587 105.369838-0.118794 158.114153 0.237587 52.863109 0.831555 105.726218 1.069142 158.470533 4.157772l79.235267 3.682599L664.125106 714.661717H793.016058c257.069142 15.561949 516.75174 8.671926 768.118793 1.900696 33.737355-3.563805 67.355916-7.602784 101.093272-11.52297 52.269142-5.820882 104.538283-12.116937 157.163805-15.561949 26.372158-1.900696 52.625522-3.445012 78.878886-4.632946 26.372158-1.187935 52.387935-2.969838 79.116473-2.969838 26.490951-0.237587 53.100696-0.593968 79.591648-0.356381l79.235267 1.66311c8.909513 0.356381 17.819026 0.712761 26.609744 1.069141v-11.998144c-36.825986-1.069142-74.60232-1.781903-113.091415-2.019489-176.051972-1.900696-354.361021 11.52297-526.849188 24.352668-161.915545 11.998144-327.513689 24.352668-493.230626 24.352668-86.838051 0-173.794896-3.445012-260.276566-11.998144-178.665429-14.967981-353.291879-14.967981-480.876103-14.967981H17.413274v13.89884h69.494199z" fill="#e98f36" p-id="15465"></path><path d="M86.907473 681.637123h201.711369c127.82181 0 303.042227 0 482.420418 15.086775 250.060325 24.827842 504.516009 5.939675 750.656148-12.473318 172.844548-12.829698 351.747564-26.134571 528.27471-24.352668 38.489095 0.118794 76.146636 0.831555 112.972622 2.019489v-11.998143c-31.717865-0.593968-64.029698-1.187935-97.054292-1.900697-38.132715-0.118794-77.453364 1.425522-117.249188 2.01949-19.957309 0.475174-40.033411 0.950348-60.228307 1.425522-20.194896 0.950348-40.627378 2.01949-61.05986 3.088631-40.983759 2.257077-82.442691 3.682599-124.139212 6.652436-83.511833 5.345708-168.330394 11.404176-253.267749 17.462645-42.409281 3.207425-85.056148 5.583295-127.465429 8.196752-21.145244 1.306729-42.409281 2.613457-63.435731 3.920186-21.145244 0.831555-42.290487 1.781903-63.316937 2.613457-21.02645 0.831555-41.934107 1.663109-62.841764 2.494663-20.788863 0.831555-41.577726 1.781903-62.366589 1.663109-41.577726 0.118794-82.561485 0.356381-122.951276 0.475174-20.313689 0.475174-39.795824-1.187935-59.515545-1.781902-19.600928-0.831555-38.964269-1.663109-58.208817-2.494664-19.244548-0.831555-38.132715-1.663109-56.902088-2.37587-19.838515-0.831555-37.30116-2.613457-55.714153-3.801392-18.175406-1.306729-35.994432-2.732251-53.575871-4.038979-8.790719-0.712761-17.581439-1.306729-26.253364-2.01949-8.671926-0.475174-17.343852-0.831555-25.896984-1.306728-34.212529-1.663109-67.355916-3.326218-99.192575-4.870534-63.673318-2.01949-122.000928-4.038979-174.032483-4.75174-51.912761-0.950348-97.173086-1.781903-134.474246-2.494663-74.60232-1.306729-117.130394-2.138283-117.130394-2.138283h-69.375406v15.680742h69.612993z" fill="#e98f36" p-id="15466"></path><path d="M86.907473 655.502552s42.646868-0.831555 117.130395-2.138283c37.30116-0.593968 82.561485-1.425522 134.474245-2.37587 51.912761-1.069142 110.715545-1.187935 174.745244-1.544315 32.074246 0.356381 65.45522 0.831555 100.142923 1.187935l26.134571 0.35638c8.790719 0.356381 17.700232 0.712761 26.609745 1.069142 17.819026 0.712761 35.994432 1.425522 54.407425 2.138283 72.701624 2.138283 150.036195 9.265893 229.390255 12.235731 39.558237 0.593968 79.710441 1.069142 120.337819 1.663109 20.313689 0.593968 40.983759-0.118794 61.653828-0.475174 20.67007-0.475174 41.458933-0.831555 62.36659-1.306729 20.907657-0.475174 41.815313-0.950348 62.841763-1.306729 21.02645-0.831555 42.171694-1.781903 63.316937-2.613457 42.290487-1.900696 84.818561-3.326218 127.227842-5.583294 85.056148-4.276566 170.112297-8.434339 253.861717-12.592112 41.815313-2.37587 83.630626-3.088631 124.733179-4.75174 20.551276-0.712761 40.983759-1.425522 61.297448-2.138283 20.313689-0.118794 40.508585-0.356381 60.584687-0.475174 40.152204 0 79.235267-0.831555 118.080742-0.237587 32.9058 0.831555 65.09884 1.663109 96.579118 2.494664v-12.829699c-33.737355-0.831555-68.425058-1.544316-104.063109-2.019489-235.448724-3.445012-483.964733 13.186079-683.775406 26.490951-97.885847 6.533643-196.365661 9.741067-296.746171 9.741067-99.073782 0-199.929466-3.207425-304.230163-9.50348-182.941995-11.047796-357.806032-11.047796-485.390255-11.047796H17.532067v15.680743h69.375406zM86.907473 603.470998c117.724362-2.494664 235.448724-3.326218 353.054292-5.108121l176.527147-2.01949 88.263573-0.475174 88.263573 0.356381h1.069141l1.187935 0.118793c41.340139 4.39536 82.680278 9.265893 124.376798 11.760557l31.242692 2.37587 31.361485 1.781903c20.907657 0.950348 41.815313 2.613457 62.72297 3.088631l62.841763 1.781903 62.960557 0.475174c21.02645 0.356381 42.0529-0.356381 63.07935-0.593968 21.02645-0.237587 42.0529-0.712761 63.079351-1.544315 42.0529-1.187935 83.987007-3.682599 125.921113-5.820882 41.934107-2.257077 83.987007-4.632947 125.921114-7.602784l125.921114-7.959165c42.0529-2.37587 84.1058-4.989327 126.1587-6.177262 21.02645-0.950348 42.171694-1.306729 63.198144-1.663109 21.145244-0.356381 42.171694-1.069142 63.316937-0.831555l63.316938 0.475174 63.316937 1.900696 108.933643 2.851044v-10.335034c-23.40232-0.593968-47.279814-1.069142-71.87007-1.66311l-20.670069-0.475174c-174.388863-4.514153-353.64826 3.563805-526.967982 11.404177-139.582367 6.296056-281.77819 12.829698-423.974014 12.829698-109.52761 0-219.05522-3.801392-327.276102-14.492807H17.413274v15.680742h69.494199z" fill="#e98f36" p-id="15467"></path><path d="M86.907473 629.486775h201.711369c127.82181 0 302.923434 0 486.340603 11.166589 209.314153 12.710905 405.20464 12.592111 598.838051-0.237587 200.04826-13.304872 449.158237-29.817169 685.319722-26.728538 35.519258 0.475174 70.088167 1.187935 103.825522 2.01949v-9.503481l-110.002784-2.851044-62.841764-1.900696-62.841763-0.475174c-20.907657-0.475174-41.934107 0-62.960557 0.118794-21.02645 0.118794-41.934107 0.356381-62.960557 0.950348-41.934107 0.950348-83.987007 2.01949-125.921113 3.445011l-126.039908 5.108121c-42.0529 1.663109-83.987007 3.920186-126.039907 6.177262L1297.29448 622.953132c-42.0529 2.01949-84.1058 3.920186-126.277494 5.464501l-63.198144 2.138283-63.316937 0.950349c-21.145244 0.475174-42.290487-0.237587-63.435731-0.237588l-31.717866-0.35638-31.717865-1.425522c-41.815313-1.425522-83.511833-5.108121-125.208353-8.434339l-87.550812 0.356381-88.263573-0.475174-176.527146-2.01949c-117.724362-1.781903-235.448724-2.613457-353.054292-5.108121h-69.375406v15.680743h69.256612z" fill="#e98f36" p-id="15468"></path></svg>